<svg width="512" height="512" xmlns="http://www.w3.org/2000/svg">

 <g>
  <title>background</title>
  <rect fill="none" id="canvas_background" height="402" width="582" y="-1" x="-1"/>
 </g>
 <g>
  <title>Layer 1</title>
  <path stroke="null" fill="#3a3a3a" id="XMLID_8603_" d="m255.930081,509.06985c-2.939725,0 -5.759733,-1.296268 -7.838159,-3.602247c-29.541356,-32.77565 -58.773443,-61.783023 -87.041141,-89.836028c-42.48302,-42.155759 -82.609383,-81.973562 -111.279463,-123.411085c-32.483299,-46.947276 -47.61202,-91.86898 -47.61202,-141.369435c0,-81.015504 59.406393,-146.927153 132.427306,-146.927153c61.368427,0 93.790759,32.752283 121.343477,86.976614c27.552719,-54.224331 59.97505,-86.976614 121.343477,-86.976614c73.098507,0 132.569193,65.911648 132.569193,146.927153c0,49.478319 -15.130939,94.382804 -47.618671,141.314092c-28.672297,41.420305 -68.794226,81.214741 -111.270595,123.347132c-28.318688,28.088671 -57.600657,57.13171 -87.184136,89.956554c-2.080643,2.304749 -4.899542,3.601017 -7.839267,3.601017zm-121.343477,-480.548837c-60.796444,0 -110.257432,54.877384 -110.257432,122.330042c0,96.109521 66.856579,162.452849 151.500048,246.447064c26.007479,25.808519 52.823049,52.418903 80.100862,82.15681c27.322152,-29.785872 54.189822,-56.435611 80.247183,-82.279796c84.640143,-83.953629 151.495614,-150.264981 151.495614,-246.324078c0,-67.452657 -49.52528,-122.330042 -110.399319,-122.330042c-51.579319,0 -79.696261,23.763269 -111.428001,94.172499c-1.877788,4.166751 -5.715393,6.798641 -9.914367,6.798641l0,0c-4.198974,0 -8.036579,-2.631891 -9.914367,-6.798641c-31.732848,-70.40923 -59.850899,-94.172499 -111.430218,-94.172499z"/>
 </g>
</svg>