<svg width="799" height="129" viewBox="0 0 799 129" fill="none" xmlns="http://www.w3.org/2000/svg">
<g filter="url(#filter0_d)">
<g filter="url(#filter1_d)">
<rect x="178" y="6" width="453" height="105" rx="20" fill="white"/>
<rect x="180.5" y="8.5" width="448" height="100" rx="17.5" stroke="#F4F4F4" stroke-width="5"/>
<rect x="180.5" y="8.5" width="448" height="100" rx="17.5" stroke="url(#paint0_linear)" stroke-width="5"/>
</g>
<path d="M253.418 34.2V79H245.098V59.8H221.93V79H213.61V34.2H221.93V52.696H245.098V34.2H253.418ZM280.014 79.448C276.558 79.448 273.444 78.7013 270.67 77.208C267.897 75.7147 265.721 73.6453 264.142 71C262.606 68.312 261.838 65.2827 261.838 61.912C261.838 58.5413 262.606 55.5333 264.142 52.888C265.721 50.2427 267.897 48.1733 270.67 46.68C273.444 45.1867 276.558 44.44 280.014 44.44C283.513 44.44 286.649 45.1867 289.422 46.68C292.196 48.1733 294.35 50.2427 295.886 52.888C297.465 55.5333 298.254 58.5413 298.254 61.912C298.254 65.2827 297.465 68.312 295.886 71C294.35 73.6453 292.196 75.7147 289.422 77.208C286.649 78.7013 283.513 79.448 280.014 79.448ZM280.014 72.6C282.958 72.6 285.39 71.6187 287.31 69.656C289.23 67.6933 290.19 65.112 290.19 61.912C290.19 58.712 289.23 56.1307 287.31 54.168C285.39 52.2053 282.958 51.224 280.014 51.224C277.07 51.224 274.638 52.2053 272.718 54.168C270.841 56.1307 269.902 58.712 269.902 61.912C269.902 65.112 270.841 67.6933 272.718 69.656C274.638 71.6187 277.07 72.6 280.014 72.6ZM338.992 44.824V79H331.376V74.648C330.096 76.184 328.496 77.3787 326.576 78.232C324.656 79.0427 322.587 79.448 320.368 79.448C315.803 79.448 312.198 78.1893 309.552 75.672C306.95 73.112 305.648 69.336 305.648 64.344V44.824H313.648V63.256C313.648 66.328 314.331 68.632 315.696 70.168C317.104 71.6613 319.088 72.408 321.648 72.408C324.507 72.408 326.768 71.5333 328.432 69.784C330.139 67.992 330.992 65.432 330.992 62.104V44.824H338.992ZM360.027 79.448C357.253 79.448 354.544 79.0853 351.899 78.36C349.253 77.6347 347.141 76.7173 345.563 75.608L348.635 69.528C350.171 70.552 352.005 71.384 354.139 72.024C356.315 72.6213 358.448 72.92 360.539 72.92C365.317 72.92 367.707 71.6613 367.707 69.144C367.707 67.9493 367.088 67.1173 365.851 66.648C364.656 66.1787 362.715 65.7307 360.027 65.304C357.211 64.8773 354.907 64.3867 353.115 63.832C351.365 63.2773 349.829 62.3173 348.507 60.952C347.227 59.544 346.587 57.6027 346.587 55.128C346.587 51.8853 347.931 49.304 350.619 47.384C353.349 45.4213 357.019 44.44 361.627 44.44C363.973 44.44 366.32 44.7173 368.667 45.272C371.013 45.784 372.933 46.488 374.427 47.384L371.355 53.464C368.453 51.7573 365.189 50.904 361.563 50.904C359.216 50.904 357.424 51.2667 356.187 51.992C354.992 52.6747 354.395 53.592 354.395 54.744C354.395 56.024 355.035 56.9413 356.315 57.496C357.637 58.008 359.664 58.4987 362.395 58.968C365.125 59.3947 367.365 59.8853 369.115 60.44C370.864 60.9947 372.357 61.9333 373.595 63.256C374.875 64.5787 375.515 66.456 375.515 68.888C375.515 72.088 374.128 74.648 371.355 76.568C368.581 78.488 364.805 79.448 360.027 79.448ZM414.532 62.104C414.532 62.6587 414.49 63.448 414.404 64.472H387.588C388.058 66.9893 389.274 68.9947 391.236 70.488C393.242 71.9387 395.716 72.664 398.66 72.664C402.415 72.664 405.508 71.4267 407.94 68.952L412.228 73.88C410.692 75.7147 408.751 77.1013 406.404 78.04C404.058 78.9787 401.412 79.448 398.468 79.448C394.714 79.448 391.407 78.7013 388.548 77.208C385.69 75.7147 383.471 73.6453 381.892 71C380.356 68.312 379.588 65.2827 379.588 61.912C379.588 58.584 380.335 55.5973 381.828 52.952C383.364 50.264 385.476 48.1733 388.164 46.68C390.852 45.1867 393.882 44.44 397.252 44.44C400.58 44.44 403.546 45.1867 406.148 46.68C408.794 48.1307 410.842 50.2 412.292 52.888C413.786 55.5333 414.532 58.6053 414.532 62.104ZM397.252 50.84C394.692 50.84 392.516 51.608 390.724 53.144C388.975 54.6373 387.908 56.6427 387.524 59.16H406.916C406.575 56.6853 405.53 54.68 403.78 53.144C402.031 51.608 399.855 50.84 397.252 50.84ZM465.353 44.44C469.662 44.44 473.075 45.6987 475.593 48.216C478.11 50.6907 479.369 54.424 479.369 59.416V79H471.369V60.44C471.369 57.4533 470.707 55.2133 469.385 53.72C468.062 52.184 466.163 51.416 463.689 51.416C461.001 51.416 458.846 52.312 457.225 54.104C455.603 55.8533 454.793 58.3707 454.793 61.656V79H446.793V60.44C446.793 57.4533 446.131 55.2133 444.809 53.72C443.486 52.184 441.587 51.416 439.113 51.416C436.382 51.416 434.206 52.2907 432.585 54.04C431.006 55.7893 430.217 58.328 430.217 61.656V79H422.217V44.824H429.833V49.176C431.113 47.64 432.713 46.4667 434.633 45.656C436.553 44.8453 438.686 44.44 441.033 44.44C443.593 44.44 445.854 44.9307 447.817 45.912C449.822 46.8507 451.401 48.2587 452.553 50.136C453.961 48.344 455.774 46.9573 457.993 45.976C460.211 44.952 462.665 44.44 465.353 44.44ZM522.032 62.104C522.032 62.6587 521.99 63.448 521.904 64.472H495.088C495.558 66.9893 496.774 68.9947 498.736 70.488C500.742 71.9387 503.216 72.664 506.16 72.664C509.915 72.664 513.008 71.4267 515.44 68.952L519.728 73.88C518.192 75.7147 516.251 77.1013 513.904 78.04C511.558 78.9787 508.912 79.448 505.968 79.448C502.214 79.448 498.907 78.7013 496.048 77.208C493.19 75.7147 490.971 73.6453 489.392 71C487.856 68.312 487.088 65.2827 487.088 61.912C487.088 58.584 487.835 55.5973 489.328 52.952C490.864 50.264 492.976 48.1733 495.664 46.68C498.352 45.1867 501.382 44.44 504.752 44.44C508.08 44.44 511.046 45.1867 513.648 46.68C516.294 48.1307 518.342 50.2 519.792 52.888C521.286 55.5333 522.032 58.6053 522.032 62.104ZM504.752 50.84C502.192 50.84 500.016 51.608 498.224 53.144C496.475 54.6373 495.408 56.6427 495.024 59.16H514.416C514.075 56.6853 513.03 54.68 511.28 53.144C509.531 51.608 507.355 50.84 504.752 50.84ZM561.845 62.104C561.845 62.6587 561.802 63.448 561.717 64.472H534.901C535.37 66.9893 536.586 68.9947 538.549 70.488C540.554 71.9387 543.029 72.664 545.973 72.664C549.727 72.664 552.821 71.4267 555.253 68.952L559.541 73.88C558.005 75.7147 556.063 77.1013 553.717 78.04C551.37 78.9787 548.725 79.448 545.781 79.448C542.026 79.448 538.719 78.7013 535.861 77.208C533.002 75.7147 530.783 73.6453 529.205 71C527.669 68.312 526.901 65.2827 526.901 61.912C526.901 58.584 527.647 55.5973 529.141 52.952C530.677 50.264 532.789 48.1733 535.477 46.68C538.165 45.1867 541.194 44.44 544.565 44.44C547.893 44.44 550.858 45.1867 553.461 46.68C556.106 48.1307 558.154 50.2 559.605 52.888C561.098 55.5333 561.845 58.6053 561.845 62.104ZM544.565 50.84C542.005 50.84 539.829 51.608 538.037 53.144C536.287 54.6373 535.221 56.6427 534.837 59.16H554.229C553.887 56.6853 552.842 54.68 551.093 53.144C549.343 51.608 547.167 50.84 544.565 50.84ZM590.073 77.144C589.135 77.912 587.983 78.488 586.617 78.872C585.295 79.256 583.887 79.448 582.393 79.448C578.639 79.448 575.737 78.4667 573.689 76.504C571.641 74.5413 570.617 71.6827 570.617 67.928V51.48H564.985V45.08H570.617V37.272H578.617V45.08H587.769V51.48H578.617V67.736C578.617 69.4 579.023 70.68 579.833 71.576C580.644 72.4293 581.817 72.856 583.353 72.856C585.145 72.856 586.639 72.3867 587.833 71.448L590.073 77.144Z" fill="#4F70C5"/>
</g>
<defs>
<filter id="filter0_d" x="-4" y="6" width="807" height="131" filterUnits="userSpaceOnUse" color-interpolation-filters="sRGB">
<feFlood flood-opacity="0" result="BackgroundImageFix"/>
<feColorMatrix in="SourceAlpha" type="matrix" values="0 0 0 0 0 0 0 0 0 0 0 0 0 0 0 0 0 0 127 0"/>
<feOffset dy="4"/>
<feGaussianBlur stdDeviation="2"/>
<feColorMatrix type="matrix" values="0 0 0 0 0 0 0 0 0 0 0 0 0 0 0 0 0 0 0.2 0"/>
<feBlend mode="normal" in2="BackgroundImageFix" result="effect1_dropShadow"/>
<feBlend mode="normal" in="SourceGraphic" in2="effect1_dropShadow" result="shape"/>
</filter>
<filter id="filter1_d" x="168" y="0" width="473" height="125" filterUnits="userSpaceOnUse" color-interpolation-filters="sRGB">
<feFlood flood-opacity="0" result="BackgroundImageFix"/>
<feColorMatrix in="SourceAlpha" type="matrix" values="0 0 0 0 0 0 0 0 0 0 0 0 0 0 0 0 0 0 127 0"/>
<feOffset dy="4"/>
<feGaussianBlur stdDeviation="5"/>
<feColorMatrix type="matrix" values="0 0 0 0 0 0 0 0 0 0 0 0 0 0 0 0 0 0 0.05 0"/>
<feBlend mode="normal" in2="BackgroundImageFix" result="effect1_dropShadow"/>
<feBlend mode="normal" in="SourceGraphic" in2="effect1_dropShadow" result="shape"/>
</filter>
<linearGradient id="paint0_linear" x1="404.5" y1="6" x2="404.5" y2="111" gradientUnits="userSpaceOnUse">
<stop offset="0.942708" stop-color="#B4CBDF"/>
<stop offset="1" stop-color="white" stop-opacity="0"/>
</linearGradient>
</defs>
</svg>
